<svg width="15" height="15" viewBox="0 0 15 15" fill="none" xmlns="http://www.w3.org/2000/svg">
<path d="M11.8071 5.25H10.6723C10.4256 5.25 10.1909 5.35099 10.0457 5.52206L7.50046 8.51885L4.95521 5.52206C4.81004 5.35099 4.57778 5.25 4.32858 5.25H3.19386C3.0366 5.25 2.94466 5.40252 3.0366 5.51176L7.34319 10.582C7.42062 10.6727 7.57788 10.6727 7.6553 10.582L11.9619 5.51176C12.0563 5.40252 11.9643 5.25 11.8071 5.25Z" fill="black" fill-opacity="0.8"/>
<path d="M7.5 0.9375C3.87598 0.9375 0.9375 3.87598 0.9375 7.5C0.9375 11.124 3.87598 14.0625 7.5 14.0625C11.124 14.0625 14.0625 11.124 14.0625 7.5C14.0625 3.87598 11.124 0.9375 7.5 0.9375ZM7.5 12.9492C4.49121 12.9492 2.05078 10.5088 2.05078 7.5C2.05078 4.49121 4.49121 2.05078 7.5 2.05078C10.5088 2.05078 12.9492 4.49121 12.9492 7.5C12.9492 10.5088 10.5088 12.9492 7.5 12.9492Z" fill="black"/>
</svg>
